<?xml version="1.0" standalone="no"?>
<!DOCTYPE svg PUBLIC "-//W3C//DTD SVG 20010904//EN"
 "http://www.w3.org/TR/2001/REC-SVG-20010904/DTD/svg10.dtd">
<svg version="1.0" xmlns="http://www.w3.org/2000/svg"
 width="1024.000000pt" height="1024.000000pt" viewBox="0 0 1024.000000 1024.000000"
 preserveAspectRatio="xMidYMid meet">
<metadata>
Created by potrace 1.14, written by Peter Selinger 2001-2017
</metadata>
<g transform="translate(0.000000,1024.000000) scale(0.100000,-0.100000)"
fill="#000000" stroke="none">
<path d="M5387 7656 c-72 -26 -107 -76 -109 -153 0 -34 -3 -42 -10 -29 -9 15
-14 14 -61 -12 -29 -16 -106 -57 -172 -92 -66 -35 -150 -80 -186 -101 -36 -21
-90 -47 -120 -59 -53 -20 -313 -148 -274 -135 11 4 90 29 175 56 85 28 171 56
190 64 19 8 72 25 117 39 46 15 142 49 215 77 73 28 141 53 150 56 10 3 38 -5
63 -17 36 -17 56 -21 87 -16 98 16 150 69 151 155 2 119 -110 206 -216 167z"/>
<path d="M7745 7083 c-172 -36 -250 -66 -341 -129 -93 -65 -139 -110 -192
-188 -66 -95 -87 -138 -118 -243 -33 -111 -38 -293 -11 -382 27 -85 23 -134
-15 -189 -39 -56 -170 -194 -252 -265 l-59 -51 -16 24 c-9 13 -33 44 -53 69
l-37 44 18 36 c49 96 55 296 12 376 -12 22 -21 43 -21 48 0 14 -43 68 -92 116
-93 92 -264 127 -405 83 -32 -10 -94 -39 -138 -65 -44 -25 -81 -44 -83 -43 -2
2 5 30 16 62 10 33 25 89 32 126 13 63 15 66 34 56 12 -6 24 -16 28 -22 4 -6
8 3 8 21 0 22 -6 33 -17 37 -10 3 -209 8 -443 11 -414 6 -496 11 -649 38 l-75
13 -11 45 c-32 122 -107 185 -233 196 -97 8 -146 -9 -203 -68 -112 -117 -106
-292 13 -393 68 -59 170 -74 261 -39 56 21 131 95 152 149 9 24 20 44 25 44 4
0 68 -16 141 -35 74 -19 222 -58 329 -85 268 -70 486 -132 520 -149 8 -5 23
-22 33 -40 19 -31 19 -32 -8 -106 -25 -67 -27 -83 -23 -177 4 -89 9 -111 35
-163 76 -151 219 -235 398 -235 79 0 122 10 225 53 11 5 25 -12 53 -63 20 -38
37 -73 37 -77 0 -4 -41 -39 -91 -78 -50 -38 -160 -124 -244 -190 -134 -104
-203 -158 -373 -288 -21 -15 -67 -51 -104 -80 -37 -29 -104 -78 -150 -110 -46
-32 -114 -81 -153 -108 -38 -27 -75 -49 -81 -49 -6 0 -38 12 -70 26 -175 77
-364 86 -549 27 -108 -35 -200 -83 -262 -138 l-52 -46 -93 7 c-98 6 -249 33
-333 59 -310 94 -337 104 -645 232 -47 19 -128 58 -180 87 -52 28 -108 56
-125 62 -30 11 -30 12 -31 85 -1 118 -18 180 -70 270 -43 73 -90 113 -183 158
-72 34 -82 36 -177 36 -100 0 -102 0 -195 -47 -77 -38 -101 -56 -135 -100 -77
-99 -105 -175 -106 -287 -1 -131 64 -256 175 -335 88 -63 134 -78 242 -79 103
-2 172 16 280 70 66 33 74 35 140 29 39 -3 130 -24 204 -46 74 -22 140 -40
148 -40 18 0 187 -57 239 -80 23 -11 85 -35 138 -54 52 -19 105 -41 118 -49
13 -8 70 -36 128 -63 123 -55 266 -145 275 -173 3 -11 -4 -57 -16 -103 -33
-124 -33 -343 0 -448 62 -198 187 -363 346 -455 91 -53 139 -71 265 -100 128
-30 183 -31 297 -5 228 53 398 167 530 355 80 113 142 349 128 480 -9 77 -40
211 -61 266 -21 53 -111 200 -132 215 -8 6 -13 18 -9 27 10 28 436 383 627
524 30 23 73 50 95 61 22 11 51 32 64 46 14 15 39 34 55 43 17 8 60 31 96 50
36 18 83 45 105 58 48 30 52 30 59 8 3 -10 41 -56 85 -102 l78 -85 -23 -47
c-29 -58 -30 -109 -3 -163 27 -56 68 -78 154 -83 54 -3 78 0 105 14 69 36 109
173 76 262 -13 36 -14 46 -4 54 7 5 118 6 252 3 237 -5 238 -5 220 15 -10 11
-32 28 -49 39 -29 18 -39 19 -91 9 -32 -5 -92 -19 -132 -30 -57 -16 -92 -19
-160 -15 -96 5 -198 19 -223 30 -10 4 -20 3 -24 -3 -3 -6 -18 -11 -33 -11 -19
1 -49 22 -105 74 -70 65 -77 76 -67 92 12 18 129 99 180 124 14 7 34 20 45 30
11 9 45 30 75 46 30 15 73 40 95 55 22 14 69 42 105 62 l65 35 110 -53 c189
-92 317 -112 492 -76 118 24 128 28 243 92 87 49 180 131 229 203 127 186 184
411 151 602 -14 80 -67 228 -104 289 -31 52 -107 147 -141 178 -37 33 -157
108 -213 133 -106 47 -307 76 -397 57z"/>
<path d="M2694 6862 c-27 -32 -60 -73 -74 -91 -14 -18 -43 -56 -66 -84 -22
-29 -74 -97 -114 -152 -40 -55 -76 -102 -79 -105 -7 -6 -39 -54 -56 -85 -6
-11 -31 -51 -56 -90 -25 -38 -56 -90 -70 -115 -13 -25 -33 -58 -45 -75 -67
-94 -241 -483 -316 -705 -64 -191 -152 -578 -175 -770 l-8 -64 -41 -12 c-94
-27 -149 -69 -207 -156 -96 -146 -81 -324 40 -458 77 -86 229 -141 342 -124
25 4 68 15 94 25 75 30 55 47 233 -186 33 -45 80 -101 102 -125 23 -25 42 -48
42 -51 0 -3 -9 -32 -20 -64 -25 -73 -25 -87 1 -170 15 -50 31 -78 64 -110 71
-72 115 -89 220 -89 107 0 144 14 214 79 63 59 93 128 95 215 1 85 -44 184
-101 222 -74 49 -89 56 -143 67 -45 9 -65 8 -115 -5 -33 -9 -69 -19 -81 -21
-16 -4 -35 11 -80 62 -32 37 -82 93 -110 124 -29 31 -74 84 -101 118 l-50 62
31 63 c27 55 31 72 31 148 0 122 -27 184 -118 275 l-70 70 7 130 c15 289 52
549 110 765 14 52 28 106 32 120 40 152 125 395 185 527 10 23 19 48 19 55 0
17 171 362 208 418 16 25 60 92 97 150 38 58 91 137 120 175 28 39 55 76 59
83 16 27 -3 9 -50 -46z"/>
<path d="M2953 6590 c-18 -10 -40 -34 -49 -52 -16 -31 -16 -34 6 -74 13 -25
34 -47 51 -54 39 -17 106 -7 133 19 l23 21 64 -24 c35 -13 116 -47 180 -75
117 -51 169 -65 139 -38 -8 8 -73 40 -145 71 -250 111 -235 103 -235 134 0 31
-17 51 -67 76 -42 21 -61 20 -100 -4z"/>
<path d="M3651 6408 c-44 -12 -126 -97 -135 -138 -14 -71 -7 -154 17 -191 66
-109 200 -144 316 -85 60 32 121 137 121 210 0 26 -32 89 -71 138 -16 20 -29
39 -29 42 0 3 16 8 36 12 28 5 33 9 21 16 -9 4 -33 5 -54 0 -21 -4 -51 -5 -68
-1 -44 10 -115 9 -154 -3z"/>
<path d="M5502 6343 c-27 -5 -100 -77 -113 -111 -19 -49 -10 -125 20 -177 16
-28 36 -57 45 -64 19 -16 121 -26 170 -17 70 13 146 110 146 184 0 31 -30 99
-56 131 -43 51 -122 71 -212 54z"/>
<path d="M2685 6326 c-89 -39 -96 -175 -13 -226 36 -22 100 -26 142 -10 43 16
68 67 63 127 -4 59 -24 88 -74 109 -40 17 -79 17 -118 0z"/>
<path d="M3986 6254 c-4 -9 -5 -19 -3 -21 2 -2 37 0 77 3 66 7 70 8 49 20 -36
20 -115 18 -123 -2z"/>
<path d="M4210 6198 c36 -24 97 -61 135 -82 39 -21 77 -45 85 -55 20 -23 135
-112 183 -140 l37 -23 35 31 c20 17 44 31 55 31 45 0 51 9 30 51 -11 21 -20
55 -20 76 0 63 -21 83 -87 83 -38 0 -70 -7 -100 -22 l-45 -23 -77 29 c-84 31
-207 70 -261 81 -32 7 -29 4 30 -37z m286 -136 c6 -4 14 -19 18 -35 l6 -27
-39 27 c-22 16 -40 31 -41 36 0 9 42 9 56 -1z"/>
<path d="M3126 6198 c-3 -13 -6 -32 -6 -44 0 -11 -11 -34 -25 -50 -50 -58 -29
-89 58 -89 69 0 107 20 107 56 0 31 -22 34 -45 6 -21 -27 -68 -37 -79 -18 -3
5 -1 31 5 57 13 60 13 84 1 96 -6 6 -12 0 -16 -14z"/>
<path d="M3170 6155 c0 -42 2 -46 23 -43 16 2 23 10 24 33 2 27 2 28 -7 8 -13
-32 -27 -28 -22 6 2 16 -1 32 -7 35 -7 5 -11 -8 -11 -39z"/>
<path d="M4029 5911 l-24 -19 39 -16 c21 -9 43 -16 48 -16 5 0 23 -7 39 -16
l30 -15 -17 26 c-9 14 -25 30 -35 36 -11 5 -19 16 -19 24 0 21 -33 19 -61 -4z"/>
<path d="M6248 4780 c28 -46 87 -129 142 -200 81 -105 230 -315 289 -408 23
-37 36 -70 39 -104 6 -60 51 -134 90 -149 45 -17 74 -2 120 62 24 33 42 65 40
70 -2 5 -145 152 -318 326 -174 175 -340 345 -370 378 -37 42 -47 49 -32 25z"/>
<path d="M6445 4795 c46 -17 219 -45 208 -34 -4 4 -51 15 -103 23 -52 9 -106
18 -120 21 -14 3 -7 -1 15 -10z"/>
<path d="M2250 4511 c0 -18 95 -124 207 -232 60 -58 251 -248 423 -423 l314
-317 -3 -46 c-1 -33 5 -61 24 -99 23 -47 37 -60 108 -104 56 -34 97 -69 130
-110 51 -63 73 -81 38 -31 -12 16 -21 33 -21 39 0 5 -13 26 -30 47 -16 21 -30
41 -30 44 0 4 15 13 34 19 103 37 143 147 100 274 -24 73 -59 93 -164 94 -50
0 -97 7 -115 15 -34 16 -144 101 -261 203 -44 39 -96 84 -115 100 -19 16 -54
48 -79 70 -25 23 -88 77 -139 121 -52 44 -150 131 -220 194 -146 132 -201 171
-201 142z"/>
<path d="M7240 4032 c-75 -29 -105 -49 -158 -107 -64 -69 -92 -141 -92 -234 0
-162 84 -284 239 -348 127 -52 297 -16 397 84 74 73 127 239 106 326 -29 115
-100 211 -194 262 -47 26 -64 30 -153 32 -76 2 -111 -2 -145 -15z"/>
<path d="M3725 3230 c3 -5 2 -10 -4 -10 -5 0 -22 -11 -37 -25 -22 -20 -27 -34
-27 -70 0 -49 -6 -50 -24 -2 -7 21 -12 25 -12 13 -1 -10 8 -34 20 -52 23 -37
32 -44 22 -16 -6 16 -5 16 13 0 20 -18 92 -27 112 -14 25 15 6 156 -20 156 -5
0 -8 7 -8 15 0 8 -9 15 -21 15 -11 0 -17 -4 -14 -10z"/>
<path d="M3780 3230 c8 -5 26 -9 40 -9 23 0 23 1 5 9 -11 5 -29 9 -40 9 -17 1
-17 -1 -5 -9z"/>
<path d="M3519 3097 c8 -10 41 -41 75 -69 53 -44 55 -45 16 -8 -64 62 -107 98
-91 77z"/>
<path d="M3710 3030 c20 -13 50 -13 50 0 0 6 -15 10 -32 10 -25 0 -29 -3 -18
-10z"/>
<path d="M3670 2966 c0 -3 27 -26 60 -51 33 -25 60 -42 60 -38 0 5 -21 25 -47
44 -62 44 -73 51 -73 45z"/>
<path d="M3833 2825 c15 -14 33 -25 38 -25 6 0 -3 11 -19 25 -39 32 -56 32
-19 0z"/>
<path d="M3885 2780 c3 -5 8 -10 11 -10 2 0 4 5 4 10 0 6 -5 10 -11 10 -5 0
-7 -4 -4 -10z"/>
<path d="M3950 2721 c0 -6 4 -13 10 -16 6 -3 7 1 4 9 -7 18 -14 21 -14 7z"/>
<path d="M10080 80 l0 -80 80 0 80 0 0 80 0 80 -80 0 -80 0 0 -80z"/>
</g>
</svg>
